<?xml version="1.0" encoding="utf-8"?>
<!-- Generator: Adobe Illustrator 22.1.0, SVG Export Plug-In . SVG Version: 6.00 Build 0)  -->
<svg version="1.1" id="Layer_1" xmlns="http://www.w3.org/2000/svg" xmlns:xlink="http://www.w3.org/1999/xlink" x="0px" y="0px"
	 viewBox="0 0 386.3 113.1" style="enable-background:new 0 0 386.3 113.1;" xml:space="preserve">
<style type="text/css">
	.st0{fill:#009FE3;}
</style>
<path class="st0" d="M376.1,33.4c-0.2,3-1.1,5.2-2.6,6.6c-1.5,1.4-3.9,2.1-7,2.1c-3.5,0-6-1.2-7.6-3.7c-1.6-2.4-2.4-6.3-2.4-11.6
	v-3.7c0-5.1,0.9-8.8,2.6-11.2c1.7-2.4,4.2-3.6,7.6-3.6c3.1,0,5.4,0.7,6.9,2.1c1.5,1.4,2.4,3.7,2.6,6.9h10.1c-0.5-5.5-2.5-9.7-6-12.8
	c-3.5-3-8-4.5-13.7-4.5c-4.1,0-7.7,1-10.8,2.9c-3.1,1.9-5.5,4.7-7.1,8.3c-1.7,3.6-2.5,7.7-2.5,12.5v3c0,7.4,1.8,13.2,5.4,17.4
	c3.6,4.2,8.5,6.3,14.8,6.3c5.7,0,10.4-1.5,13.9-4.5c3.5-3,5.5-7.2,5.8-12.5H376.1z M288.2,0.7v49h10.1V36.3l-1-23.1l13.2,36.5h6.9
	l13.2-36.5l-1,23.1v13.4h10.1v-49h-13.3l-12.5,35.5L301.3,0.7H288.2z M272.1,33.4c-0.2,3-1.1,5.2-2.6,6.6c-1.5,1.4-3.9,2.1-7,2.1
	c-3.5,0-6-1.2-7.6-3.7c-1.6-2.4-2.4-6.3-2.4-11.6v-3.7c0-5.1,0.9-8.8,2.6-11.2c1.7-2.4,4.2-3.6,7.6-3.6c3.1,0,5.4,0.7,6.9,2.1
	c1.5,1.4,2.4,3.7,2.6,6.9h10.1c-0.5-5.5-2.5-9.7-6-12.8c-3.5-3-8-4.5-13.7-4.5c-4.1,0-7.7,1-10.8,2.9c-3.1,1.9-5.5,4.7-7.1,8.3
	c-1.7,3.6-2.5,7.7-2.5,12.5v3c0,7.4,1.8,13.2,5.4,17.4s8.5,6.3,14.8,6.3c5.7,0,10.4-1.5,13.9-4.5c3.5-3,5.5-7.2,5.8-12.5H272.1z
	 M215.6,0.7H207L199,35.5l-6.6-34.8h-10.1l10.9,49h10.2l8-32.8l8,32.8h10.2l10.9-49h-10.1l-6.6,34.9L215.6,0.7z"/>
<g>
	<g>
		<g>
			<g>
				<g>
					<g>
						<path class="st0" d="M122.1,39.6c-6.1-1.8-10.6-7.5-10.6-14.2c0-1.2,0.1-2.4,0.4-3.5l9.7,1.2c0,0,3.7,0.2,3.6,6.7
							C125,36.2,122.1,39.6,122.1,39.6z"/>
						<path class="st0" d="M130.7,39.6c6.1-1.8,10.6-7.5,10.6-14.2c0-1.2-0.1-2.4-0.4-3.5l-9.7,1.2c0,0-3.7,0.2-3.6,6.7
							C127.8,36.2,130.7,39.6,130.7,39.6z"/>
						<path class="st0" d="M126.4,14.7c1.2,0,2.3,1,2.3,2.3c0,1-0.7,1.7-1.5,2.1c-0.1,0.1-0.2,0.1-0.2,0.3c0,0.2,0.5,0.2,0.7,0.3
							l13,1.5c-1.8-6.2-7.5-10.7-14.3-10.7h0c-6.7,0-12.5,4.5-14.3,10.7l13-1.5c0.2,0,0.7-0.1,0.7-0.3c0-0.2-0.1-0.2-0.2-0.3
							c-0.8-0.4-1.5-1.2-1.5-2.1C124.2,15.7,125.2,14.7,126.4,14.7L126.4,14.7z"/>
					</g>
					<g>
						<path class="st0" d="M132.3,50.1l0.9-0.5c0,0-4.2-5.7-13.5-5.7c-4.8,0-7.3,1.9-10.6,1.9c0,0-1.4,0.2-2.7-0.7
							c0,0,1.6,2.3,7.4,2.3c4.2,0,7.3-2.5,10.2-2.5C128.1,45,131.1,48.7,132.3,50.1z"/>
					</g>
					<g>
						<path class="st0" d="M119.4,50.1l-0.9-0.5c0,0,4.2-5.7,13.5-5.7c4.8,0,7.3,1.9,10.6,1.9c0,0,1.4,0.2,2.7-0.7
							c0,0-1.6,2.3-7.4,2.3c-4.2,0-7.3-2.5-10.2-2.5C123.7,45,120.6,48.7,119.4,50.1z"/>
					</g>
					<path class="st0" d="M114.9,43.4c-0.2,0.4-2-0.1-3.2,0.3c-1.4,0.4-8.5,1.3-11.6-6.2c0,0,3,3.2,5.3,3.4c2.3,0.2,4.8,0.8,7,2
						l0.5,0.1c0,0-0.1-0.2-0.3-0.3c-0.3-0.2-2.5-0.9-3.6-4.4c-0.5-1.8-0.4-3.1-0.7-4.1c0,0,2.4,2.7,3.4,4.4
						C112.8,40.4,112.9,42.3,114.9,43.4z"/>
					<path class="st0" d="M107.6,39.7c-0.2,0.2-0.6-0.1-0.8-0.2c-0.2-0.1-1.4-0.6-3.4-1.3c-2-0.7-5.7-3.9-5.4-9.3c0,0,0.5,2,2.1,3.4
						c1.5,1.3,2.1,1.5,3,2.6c0.9,1.1,3,3.6,3.1,3.6c0.1,0,0.1-0.2-0.1-0.3s-0.7-1.5-1.1-2c-0.4-0.5-1.4-3.7,0.1-7.6
						c0,0,1.7,2.9,1.6,5.8c-0.1,2.9-0.2,2.2,0.5,4.6C107.3,39,107.7,39.6,107.6,39.7z"/>
					<path class="st0" d="M103,32.6c-0.1,0.1-0.5-0.5-0.9-1.1c-0.3-0.6-2.6-3-2.9-3.5c-0.3-0.5-2.9-3.6-0.9-8.3c0,0,0.2-0.1,0.2,1
						c0,1.1,1,3.5,1.8,4.6c0.8,1,1.6,2.7,1.7,4.5c0,0,0.1,0.3,0.2,0.4s0.1-0.3,0.1-0.3s-0.1-1.6-0.1-2.8c0-1.1,0.5-3,1.6-4.1
						c0,0,0.5-0.5,0.8-1.2c0,0,0.2-0.4,0.5-0.7c0,0,0.2,3.2-0.9,6.1c-1.1,2.9-1.4,3.4-1.3,5C103,32.2,103,32.6,103,32.6z"/>
					<path class="st0" d="M101.2,24c-0.1,0-0.2-0.4-0.2-0.7c-0.1-0.3-0.4-2.1-0.6-2.4c-0.2-0.4-1-2.1-1.1-4.2s0.9-4.9,3-7.1
						c0,0-0.1,0.7-0.6,2.1c-0.5,1.5-0.2,2.8-0.2,3.1c0.1,0.2,0.2,1.9,0.2,2.7c0,0.6-0.2,2.8-0.3,3.2c0,0-0.1,0.3,0.1,0.3
						s0.2-0.2,0.2-0.2s0.1-1.7,1.4-3.2c1.3-1.5,3.5-2.5,3.9-3.2c0,0-0.2,2.4-2.8,5.2c-2.4,2.5-1.7,1.2-2.4,3.3c0,0-0.3,0.8-0.3,0.9
						C101.3,24,101.2,24,101.2,24z"/>
					<path class="st0" d="M102.6,15.8c0,0-0.1-0.3,0.4-1.1c0.4-0.7,0-2.1,0.5-4c0.5-1.9,1.6-5.2,5.4-7.2c0,0-0.4,0.4-0.6,0.6
						c-0.2,0.3-1.2,2.3-1.5,3.6c-0.3,1.4-1.6,3.7-2.1,4.2c-0.5,0.5-0.3,0.6-0.3,0.6s0.2-0.1,0.5-0.4c0.2-0.4,1.5-1.8,2.9-2.1
						c1.4-0.3,3.6-1,3.8-1.1c0,0-2.4,2.5-4.6,3.7c-2.2,1.3-2.5,0.9-3.8,2.6C103.2,15.2,102.7,15.8,102.6,15.8z"/>
					<path class="st0" d="M107.9,8.5c0,0,0-0.2,0.4-0.6c0.4-0.4,0.8-1.5,1.5-2.6c0.7-1.1,2.3-3.9,6.5-4.5c0,0-1.3,0.9-1.5,1.2
						c-0.2,0.3-1.4,1.9-2,2.5s-2.1,1.7-2.6,2c0,0-0.3,0.2-0.2,0.3c0.1,0.1,0.3-0.1,0.3-0.1s1.5-1.1,3.2-1.2c1.8-0.1,3.6,0,3.9,0.1
						c0,0-1.6,1.1-5.6,1.8c-3.9,0.7-3.2,0.7-3.8,1.1C108.2,8.5,108,8.6,107.9,8.5z"/>
					<path class="st0" d="M114.9,3.9c0,0,0.1-0.2,0.7-0.4c0.6-0.2,0.6-0.8,2.5-1.8c1.9-1,3.9-1.5,6-0.6c0,0-0.9,0.1-1,0.2
						c-0.1,0.1-1.6,0.4-2,0.7c-0.4,0.2-2.5,1.2-3.4,1.3c-0.9,0.2-0.4,0.2-0.4,0.2s0.2,0.1,0.4,0.1s2.1-0.2,3.3,0.2
						c1.2,0.4,1.2,0.6,1.7,0.8c0.5,0.2,1.1,0.3,1.2,0.5c0,0-1.2,0.1-2,0.1c-0.7,0-2.7-0.2-3.6-0.6c-0.9-0.4-2-0.6-2.4-0.5
						C115.5,4,115.1,4,114.9,3.9z"/>
					<path class="st0" d="M122.7,3c0,0,0.1-0.1,0.6-0.2c0.5-0.1,0.7-0.4,2-0.7c1.3-0.3,3.3-0.5,5.1,0.7c0,0-1.1,0-1.4,0
						c-0.2,0-2.4,0.4-2.9,0.4c-0.5,0-1.5-0.2-1.6-0.1c-0.1,0.2,0.9,0.4,1.1,0.4c0.2,0.1,0.9,0.1,1.8,1c0.9,0.9,1.6,1.4,1.7,1.5
						c0,0-2.7-0.6-3.4-1c-0.7-0.4-1.9-1.6-2.1-1.6C123.5,3.2,122.7,3,122.7,3z"/>
					<path class="st0" d="M129.1,4.1c0,0,1.7-0.1,3,0.7c1.3,0.8,2.3,1.8,2.4,2.5c0,0-0.7-0.6-1.2-0.7c-0.5-0.1-1.8-0.9-2.1-1
						C131,5.4,129.4,4.3,129.1,4.1z"/>
					<path class="st0" d="M137.2,43.7c0,0,0.2-0.2,1.1-1c0.8-0.7,1-1.8,2-3.4c0.9-1.6,1.7-2.7,3.5-4.4c0,0-0.3,1.2-0.4,1.6
						c0,0.4-0.3,2.5-1.4,3.8c-1,1.2-1.1,1.5-2.3,2.3c0,0-0.5,0.3-0.4,0.4c0,0.1,0.8,0,0.8,0s0.9-0.3,1.2-0.5c0.3-0.2,1.5-0.8,2-1
						c0.5-0.2,0.9-0.4,2-0.7c1.1-0.3,5.1-1.3,6.6-3.9c0,0-0.5,1.5-1,2.2c-0.6,0.7-3.8,5-8.4,4.9c0,0-1.8-0.1-2.7-0.3
						c-0.9-0.2-1.3-0.2-1.4-0.1C138.2,43.7,137.4,43.8,137.2,43.7z"/>
					<path class="st0" d="M147.4,28.3c0,0-1.7,2.7-2.1,6.5s0.3,2.7-0.4,4.4c0,0-0.2,0.4-0.1,0.5c0.1,0,0.4-0.2,1.6-0.9
						c1.2-0.7,2.4-0.5,5-3c2.6-2.5,3.1-7.4,3.2-7.8c0,0-0.4,0.4-0.6,1c-0.2,0.7-0.6,1.2-0.7,1.3c-0.1,0.1-2.9,3.2-3.2,3.4
						c-0.3,0.3-2,2.3-2.3,2.9c-0.4,0.6-1.4,1.6-1.6,1.5c0,0,0-0.2,0.1-0.4c0.1-0.2,0.9-1.2,1.2-2.4c0.3-1.2,0.4-2,0.4-2.7
						C147.9,31.8,147.4,28.9,147.4,28.3z"/>
					<path class="st0" d="M149.7,32c0,0-0.2-0.4,0-0.7c0.1-0.2,0.2-1.5-0.3-2.6c-0.5-1.1-1.6-4-1.5-6c0.1-2,0.3-2.3,0.3-2.3
						s0.5,1.6,0.7,1.9s1.8,3.2,1.7,4.8c-0.1,1.6-0.2,2.1-0.1,2.1c0.1,0,0.3-0.2,0.3-0.4c0-0.2,0.3-1.3,0.8-2.6
						c0.5-1.3,2.6-4.1,3.1-6c0,0,0.7,3.3-1.2,6.4c-1.8,3.1-2,2.4-2.8,3.8C149.9,31.9,149.8,32,149.7,32z"/>
					<path class="st0" d="M151.4,23.3c-0.1,0-0.1-1.3-0.4-1.7c-0.3-0.4-3.2-3.8-3.8-7.1c0,0,1.8,1.8,2.1,2c0.3,0.2,1.5,1.4,1.9,2.4
						c0.4,1,0.3,1.9,0.4,2c0.1,0,0.1-1.2,0.1-1.2s0-2.3,0.2-3.4c0.2-1.1,0.7-2.9,0.5-3.9c0,0,1.1,1.7,1,4.1
						c-0.1,2.4-1.1,4.3-1.2,4.6c-0.1,0.3-0.5,1.5-0.5,1.7S151.4,23.3,151.4,23.3z"/>
					<path class="st0" d="M148,6.1c0,0,3.7,2.2,3.1,9.6c0,0,0,0.3-0.2,0c-0.2-0.4-1-1.4-1.4-1.6c-0.4-0.2-3.7-2.2-5.1-5.3
						c0,0,0.2-0.1,0.5,0.2c0.3,0.3,1.3,0.8,1.5,0.9c0.2,0.1,1.3,0.4,2.2,1.3c0.9,0.9,1.2,1.6,1.4,2.2c0,0,0.2,0.2,0.1-0.4
						c-0.2-0.5-0.2-0.9-0.6-1.6c-0.4-0.7-0.8-1.9-0.9-2.8C148.6,7.8,148.4,6.6,148,6.1z"/>
					<path class="st0" d="M147.4,8.7c0,0,0.1-0.5-0.3-1.2c-0.4-0.7-0.1-1.5-1.2-3.3c-0.6-1-2.8-1.8-2.8-1.8s0.6,0.9,1,1.4
						c0.4,0.5,0.5,0.9,0.7,1.1c0.1,0.2,0.9,1,1.2,1.4c0.1,0.1,0.2,0.3,0.2,0.4c0,0.1-0.3-0.1-0.4-0.2c-0.1-0.1-1.4-1.1-2.3-1.3
						c-0.9-0.2-2.5-0.3-2.9-0.5c0,0,1.9,1.7,4,2.3C146.7,7.6,147.4,8.7,147.4,8.7z"/>
					<path class="st0" d="M143,4.2c0,0-1.9-2.6-5.4-2.6c0,0,0.2,0.2,0.6,0.3c0.4,0.1,1.1,0.8,1.4,1C140,3.1,140.8,3.7,143,4.2z"/>
				</g>
			</g>
		</g>
	</g>
	<path class="st0" d="M37.6,0.6v32.3c0,2.8-0.5,5.3-1.4,7.5s-2.2,4-3.9,5.4c-1.7,1.5-3.6,2.6-5.9,3.3s-4.8,1.1-7.5,1.1
		c-2.7,0-5.2-0.4-7.5-1.1S7,47.2,5.4,45.8c-1.7-1.5-3-3.3-3.9-5.4c-0.9-2.2-1.4-4.7-1.4-7.5V0.6h10.1v32.3c0,3.2,0.8,5.5,2.3,7
		c1.5,1.5,3.7,2.2,6.4,2.2c2.7,0,4.9-0.7,6.4-2.2c1.5-1.5,2.3-3.8,2.3-7V0.6H37.6z"/>
	<path class="st0" d="M85.6,49.5H75.5L55.9,17.3v32.2H45.8V0.6h10.1l19.7,32.2V0.6h10V49.5z"/>
	<g>
		<path class="st0" d="M7.4,81.1c-2.1,0-3.8-0.7-5.2-2c-1.3-1.3-2-3.1-2-5.3v-0.4c0-1.5,0.3-2.8,0.8-4c0.6-1.2,1.4-2.1,2.4-2.7
			c1-0.6,2.2-0.9,3.5-0.9c2,0,3.5,0.6,4.7,1.9c1.1,1.3,1.7,3.1,1.7,5.4v1.6H4.1c0.1,1,0.5,1.7,1.1,2.3c0.6,0.6,1.4,0.9,2.4,0.9
			c1.5,0,2.6-0.5,3.5-1.6l1.9,2.2c-0.6,0.8-1.4,1.5-2.3,2C9.6,80.9,8.6,81.1,7.4,81.1z M6.9,69c-0.8,0-1.4,0.3-1.9,0.8
			c-0.5,0.5-0.8,1.3-0.9,2.3h5.4v-0.3c0-0.9-0.2-1.5-0.7-2C8.4,69.2,7.7,69,6.9,69z"/>
		<path class="st0" d="M19.2,66.1l0.1,1.7c1-1.3,2.4-2,4.1-2c1.5,0,2.7,0.5,3.4,1.4c0.7,0.9,1.1,2.3,1.1,4.1v9.5h-3.9v-9.4
			c0-0.8-0.2-1.4-0.5-1.8S22.7,69,21.9,69c-1.1,0-1.9,0.5-2.4,1.4v10.4h-3.9V66.1H19.2z"/>
		<path class="st0" d="M36.5,76l2.7-9.9h4l-4.9,14.7h-3.7l-4.9-14.7h4L36.5,76z"/>
		<path class="st0" d="M45,62.3c0-0.6,0.2-1.1,0.6-1.5c0.4-0.4,0.9-0.6,1.6-0.6c0.7,0,1.2,0.2,1.6,0.6c0.4,0.4,0.6,0.9,0.6,1.5
			c0,0.6-0.2,1.1-0.6,1.5c-0.4,0.4-0.9,0.6-1.6,0.6s-1.2-0.2-1.6-0.6C45.2,63.4,45,62.9,45,62.3z M49.1,80.8h-3.9V66.1h3.9V80.8z"/>
		<path class="st0" d="M60.6,69.8c-0.5-0.1-1-0.1-1.4-0.1c-1.5,0-2.4,0.5-2.9,1.5v9.6h-3.9V66.1h3.6l0.1,1.8c0.8-1.4,1.8-2,3.2-2
			c0.4,0,0.8,0.1,1.2,0.2L60.6,69.8z"/>
		<path class="st0" d="M61.5,73.3c0-1.5,0.3-2.8,0.8-3.9s1.3-2,2.4-2.7c1-0.6,2.2-0.9,3.6-0.9c1.9,0,3.5,0.6,4.8,1.8
			c1.2,1.2,1.9,2.9,2.1,5l0,1c0,2.3-0.6,4.1-1.9,5.4s-2.9,2-5,2c-2.1,0-3.7-0.7-5-2s-1.9-3.2-1.9-5.5V73.3z M65.4,73.6
			c0,1.4,0.3,2.5,0.8,3.2s1.3,1.1,2.2,1.1c0.9,0,1.7-0.4,2.2-1.1c0.5-0.7,0.8-1.9,0.8-3.5c0-1.4-0.3-2.4-0.8-3.2
			C70,69.4,69.3,69,68.3,69c-0.9,0-1.7,0.4-2.2,1.1C65.6,70.9,65.4,72,65.4,73.6z"/>
		<path class="st0" d="M81.3,66.1l0.1,1.7c1-1.3,2.4-2,4.1-2c1.5,0,2.7,0.5,3.4,1.4c0.7,0.9,1.1,2.3,1.1,4.1v9.5h-3.9v-9.4
			c0-0.8-0.2-1.4-0.5-1.8S84.8,69,83.9,69c-1.1,0-1.9,0.5-2.4,1.4v10.4h-3.9V66.1H81.3z"/>
		<path class="st0" d="M96.8,66.1l0.1,1.6c1-1.3,2.4-1.9,4.1-1.9c1.9,0,3.1,0.7,3.8,2.2c1-1.5,2.5-2.2,4.3-2.2
			c1.6,0,2.7,0.5,3.5,1.4c0.8,0.9,1.1,2.3,1.1,4.2v9.4H110v-9.4c0-0.8-0.2-1.4-0.5-1.8c-0.3-0.4-0.9-0.6-1.7-0.6
			c-1.2,0-2,0.6-2.4,1.7l0,10.1h-3.9v-9.4c0-0.9-0.2-1.5-0.5-1.9c-0.3-0.4-0.9-0.6-1.7-0.6c-1.1,0-1.9,0.5-2.4,1.4v10.4h-3.9V66.1
			H96.8z"/>
		<path class="st0" d="M123.6,81.1c-2.1,0-3.8-0.7-5.2-2c-1.3-1.3-2-3.1-2-5.3v-0.4c0-1.5,0.3-2.8,0.8-4c0.6-1.2,1.4-2.1,2.4-2.7
			c1-0.6,2.2-0.9,3.5-0.9c2,0,3.5,0.6,4.7,1.9c1.1,1.3,1.7,3.1,1.7,5.4v1.6h-9.2c0.1,1,0.5,1.7,1.1,2.3c0.6,0.6,1.4,0.9,2.4,0.9
			c1.5,0,2.6-0.5,3.5-1.6l1.9,2.2c-0.6,0.8-1.4,1.5-2.3,2C125.9,80.9,124.8,81.1,123.6,81.1z M123.2,69c-0.8,0-1.4,0.3-1.9,0.8
			c-0.5,0.5-0.8,1.3-0.9,2.3h5.4v-0.3c0-0.9-0.2-1.5-0.7-2C124.6,69.2,124,69,123.2,69z"/>
		<path class="st0" d="M135.5,66.1l0.1,1.7c1-1.3,2.4-2,4.1-2c1.5,0,2.7,0.5,3.4,1.4s1.1,2.3,1.1,4.1v9.5h-3.9v-9.4
			c0-0.8-0.2-1.4-0.5-1.8s-0.9-0.6-1.8-0.6c-1.1,0-1.9,0.5-2.4,1.4v10.4h-3.9V66.1H135.5z"/>
		<path class="st0" d="M152,62.5v3.6h2.5V69H152v7.3c0,0.5,0.1,0.9,0.3,1.2c0.2,0.2,0.6,0.4,1.2,0.4c0.4,0,0.8,0,1.1-0.1v3
			c-0.8,0.2-1.5,0.4-2.3,0.4c-2.7,0-4.1-1.4-4.1-4.2V69H146v-2.9h2.1v-3.6H152z"/>
	</g>
	<g>
		<path class="st0" d="M13.7,100.1c0,2.3-0.5,4.1-1.5,5.4s-2.4,2-4.1,2c-1.5,0-2.6-0.5-3.5-1.6v6.9H0.7V92.6h3.6L4.4,94
			c0.9-1.1,2.2-1.7,3.7-1.7c1.8,0,3.2,0.7,4.1,2c1,1.3,1.5,3.2,1.5,5.6V100.1z M9.8,99.8c0-1.4-0.2-2.4-0.7-3.2
			c-0.5-0.7-1.2-1.1-2.1-1.1c-1.2,0-2,0.5-2.5,1.4v6c0.5,1,1.3,1.5,2.5,1.5C8.9,104.4,9.8,102.9,9.8,99.8z"/>
		<path class="st0" d="M24.4,96.3c-0.5-0.1-1-0.1-1.4-0.1c-1.5,0-2.4,0.5-2.9,1.5v9.6h-3.9V92.6h3.6l0.1,1.8c0.8-1.4,1.8-2,3.2-2
			c0.4,0,0.8,0.1,1.2,0.2L24.4,96.3z"/>
		<path class="st0" d="M25.3,99.8c0-1.5,0.3-2.8,0.8-3.9c0.6-1.1,1.3-2,2.4-2.7c1-0.6,2.2-0.9,3.6-0.9c1.9,0,3.5,0.6,4.8,1.8
			c1.2,1.2,1.9,2.9,2.1,5l0,1c0,2.3-0.6,4.1-1.9,5.4c-1.2,1.4-2.9,2-5,2s-3.7-0.7-5-2c-1.2-1.4-1.9-3.2-1.9-5.5V99.8z M29.1,100.1
			c0,1.4,0.3,2.5,0.8,3.2s1.3,1.1,2.2,1.1c0.9,0,1.7-0.4,2.2-1.1c0.5-0.7,0.8-1.9,0.8-3.5c0-1.4-0.3-2.4-0.8-3.2
			c-0.5-0.8-1.3-1.1-2.2-1.1c-0.9,0-1.7,0.4-2.2,1.1C29.4,97.3,29.1,98.5,29.1,100.1z"/>
		<path class="st0" d="M40.9,99.8c0-2.3,0.5-4.1,1.6-5.5c1.1-1.4,2.5-2.1,4.3-2.1c1.6,0,2.8,0.6,3.7,1.7l0.2-1.4h3.5v14.2
			c0,1.3-0.3,2.4-0.9,3.4c-0.6,1-1.4,1.7-2.4,2.2c-1,0.5-2.3,0.7-3.7,0.7c-1.1,0-2.1-0.2-3.1-0.6c-1-0.4-1.8-1-2.3-1.7l1.7-2.4
			c1,1.1,2.1,1.6,3.5,1.6c1,0,1.8-0.3,2.4-0.8c0.6-0.6,0.9-1.3,0.9-2.4V106c-0.9,1-2.1,1.5-3.5,1.5c-1.7,0-3.1-0.7-4.2-2.1
			c-1.1-1.4-1.6-3.2-1.6-5.5V99.8z M44.8,100.1c0,1.3,0.3,2.4,0.8,3.1c0.5,0.8,1.2,1.1,2.2,1.1c1.2,0,2-0.5,2.5-1.3v-6.2
			c-0.5-0.9-1.3-1.3-2.5-1.3c-0.9,0-1.7,0.4-2.2,1.2C45.1,97.4,44.8,98.6,44.8,100.1z"/>
		<path class="st0" d="M65.4,96.3c-0.5-0.1-1-0.1-1.4-0.1c-1.5,0-2.4,0.5-2.9,1.5v9.6h-3.9V92.6h3.6l0.1,1.8c0.8-1.4,1.8-2,3.2-2
			c0.4,0,0.8,0.1,1.2,0.2L65.4,96.3z"/>
		<path class="st0" d="M75.3,107.3c-0.2-0.4-0.3-0.8-0.4-1.3c-0.9,1.1-2.1,1.6-3.6,1.6c-1.4,0-2.6-0.4-3.5-1.3
			c-0.9-0.8-1.4-1.9-1.4-3.2c0-1.6,0.6-2.8,1.7-3.6c1.1-0.8,2.8-1.3,4.9-1.3h1.8v-0.8c0-0.7-0.2-1.2-0.5-1.6
			c-0.3-0.4-0.9-0.6-1.6-0.6c-0.6,0-1.2,0.2-1.5,0.5c-0.4,0.3-0.6,0.8-0.6,1.3h-3.9c0-0.9,0.3-1.6,0.8-2.4c0.5-0.7,1.2-1.3,2.2-1.7
			c0.9-0.4,2-0.6,3.2-0.6c1.8,0,3.2,0.5,4.2,1.4c1,0.9,1.6,2.2,1.6,3.8v6.4c0,1.4,0.2,2.5,0.6,3.2v0.2H75.3z M72.2,104.6
			c0.6,0,1.1-0.1,1.6-0.4c0.5-0.3,0.8-0.6,1.1-1v-2.5h-1.4c-1.9,0-3,0.7-3.1,2l0,0.2c0,0.5,0.2,0.9,0.5,1.2
			C71.1,104.4,71.6,104.6,72.2,104.6z"/>
		<path class="st0" d="M85.4,92.6l0.1,1.6c1-1.3,2.4-1.9,4.1-1.9c1.9,0,3.1,0.7,3.8,2.2c1-1.5,2.5-2.2,4.3-2.2
			c1.6,0,2.7,0.5,3.5,1.4c0.8,0.9,1.1,2.3,1.1,4.2v9.4h-3.9v-9.4c0-0.8-0.2-1.4-0.5-1.8c-0.3-0.4-0.9-0.6-1.7-0.6
			c-1.2,0-2,0.6-2.4,1.7l0,10.1h-3.9v-9.4c0-0.9-0.2-1.5-0.5-1.9c-0.3-0.4-0.9-0.6-1.7-0.6c-1.1,0-1.9,0.5-2.4,1.4v10.4h-3.9V92.6
			H85.4z"/>
		<path class="st0" d="M109.2,92.6l0.1,1.6c1-1.3,2.4-1.9,4.1-1.9c1.9,0,3.1,0.7,3.8,2.2c1-1.5,2.5-2.2,4.3-2.2
			c1.6,0,2.7,0.5,3.5,1.4c0.8,0.9,1.1,2.3,1.1,4.2v9.4h-3.9v-9.4c0-0.8-0.2-1.4-0.5-1.8c-0.3-0.4-0.9-0.6-1.7-0.6
			c-1.2,0-2,0.6-2.4,1.7l0,10.1H114v-9.4c0-0.9-0.2-1.5-0.5-1.9c-0.3-0.4-0.9-0.6-1.7-0.6c-1.1,0-1.9,0.5-2.4,1.4v10.4h-3.9V92.6
			H109.2z"/>
		<path class="st0" d="M136,107.6c-2.1,0-3.8-0.7-5.2-2c-1.3-1.3-2-3.1-2-5.3v-0.4c0-1.5,0.3-2.8,0.8-4c0.6-1.2,1.4-2.1,2.4-2.7
			c1-0.6,2.2-0.9,3.5-0.9c2,0,3.5,0.6,4.7,1.9c1.1,1.3,1.7,3.1,1.7,5.4v1.6h-9.2c0.1,1,0.5,1.7,1.1,2.3c0.6,0.6,1.4,0.9,2.4,0.9
			c1.5,0,2.6-0.5,3.5-1.6l1.9,2.2c-0.6,0.8-1.4,1.5-2.3,2C138.3,107.3,137.2,107.6,136,107.6z M135.6,95.5c-0.8,0-1.4,0.3-1.9,0.8
			c-0.5,0.5-0.8,1.3-0.9,2.3h5.4v-0.3c0-0.9-0.2-1.5-0.7-2C137,95.7,136.4,95.5,135.6,95.5z"/>
	</g>
</g>
</svg>
